<?xml version="1.0" standalone="no"?>
<!DOCTYPE svg PUBLIC "-//W3C//DTD SVG 20010904//EN"
 "http://www.w3.org/TR/2001/REC-SVG-20010904/DTD/svg10.dtd">
<svg version="1.0" xmlns="http://www.w3.org/2000/svg"
 width="256.000000pt" height="263.000000pt" viewBox="0 0 256.000000 263.000000"
 preserveAspectRatio="xMidYMid meet">

<g transform="translate(0.000000,263.000000) scale(0.100000,-0.100000)"
fill="#000000" stroke="none">
<path d="M2097 2593 c-4 -3 -7 -29 -7 -56 0 -43 2 -48 15 -37 9 8 15 30 15 56
0 41 -8 53 -23 37z"/>
<path d="M2063 2559 c-16 -16 -17 -99 -3 -99 16 0 22 23 18 69 -2 34 -5 40
-15 30z"/>
<path d="M2021 2527 c-9 -12 -11 -30 -6 -62 5 -37 12 -48 31 -56 33 -12 81
-12 89 1 7 12 -37 23 -73 18 -26 -4 -27 -3 -24 38 2 23 2 50 0 60 -3 16 -4 16
-17 1z"/>
<path d="M1968 2473 c-22 -23 -28 -39 -28 -75 0 -26 -4 -50 -10 -53 -33 -20
38 -26 118 -9 37 8 14 24 -34 24 l-44 0 1 53 c2 52 2 52 9 12 8 -52 23 -25 18
35 l-3 42 -27 -29z"/>
<path d="M2115 2491 c-6 -11 53 -25 81 -19 9 1 19 9 22 16 5 15 -93 17 -103 3z"/>
<path d="M2077 2458 c-18 -11 -5 -17 41 -19 61 -4 78 18 17 23 -25 2 -52 0
-58 -4z"/>
<path d="M2001 2386 c-10 -12 -4 -15 35 -18 27 -2 53 2 63 9 14 11 11 12 -21
13 -20 0 -43 2 -51 5 -7 3 -19 -1 -26 -9z"/>
<path d="M1851 2366 c-7 -8 -14 -30 -18 -49 -5 -34 -6 -34 -48 -29 -37 4 -45
1 -55 -19 -11 -20 -10 -25 15 -47 l28 -23 -54 -57 -54 -56 59 52 c33 29 65 52
72 52 6 0 31 -7 54 -15 24 -8 44 -14 46 -13 1 2 6 38 11 80 7 58 6 86 -3 108
-14 32 -35 38 -53 16z"/>
<path d="M1374 2134 c-19 -15 -19 -16 1 -7 11 4 55 7 97 7 43 -1 75 2 72 7
-10 16 -148 11 -170 -7z"/>
<path d="M1584 2115 c11 -8 34 -15 50 -14 l31 1 -30 13 c-16 8 -39 14 -50 14
-20 0 -20 0 -1 -14z"/>
<path d="M1550 2070 c-12 -8 -12 -15 2 -58 l15 -49 -33 -27 c-25 -19 -34 -34
-33 -54 1 -21 2 -22 6 -7 3 11 20 36 39 56 22 22 32 41 29 51 -4 11 2 19 22
27 l28 11 -32 -6 c-26 -4 -32 -1 -38 16 -4 12 -1 27 5 35 14 17 11 19 -10 5z"/>
<path d="M1684 2047 c3 -10 6 -22 6 -26 0 -4 18 -17 39 -29 22 -13 42 -30 44
-40 3 -10 5 -7 6 10 1 22 -5 28 -34 38 -19 6 -42 24 -51 38 -8 15 -13 19 -10
9z"/>
<path d="M505 1390 c-4 -6 5 -7 24 -4 42 9 51 -15 51 -130 0 -107 1 -106 -71
-81 -60 20 -117 69 -128 108 l-9 32 -1 -32 c-2 -59 50 -100 177 -138 33 -10
44 -11 48 -2 10 29 -2 225 -15 240 -15 18 -66 23 -76 7z"/>
<path d="M490 1350 c0 -17 -3 -19 -19 -10 -34 18 -109 5 -88 -16 3 -4 14 -1
22 6 20 17 57 1 81 -34 21 -33 36 -24 22 14 -5 17 -7 37 -4 45 3 8 1 15 -4 15
-6 0 -10 -9 -10 -20z"/>
<path d="M2068 912 c-6 -13 -115 -102 -126 -102 -5 0 -12 -7 -16 -15 -6 -15 7
-19 53 -15 20 2 23 -2 17 -22 -3 -12 -11 -51 -18 -85 -8 -46 -16 -63 -27 -63
-9 0 -27 -6 -41 -13 -43 -23 -89 -36 -95 -28 -2 5 -7 48 -9 97 -3 49 -6 91 -7
94 -1 3 -1 8 0 13 0 4 -9 17 -21 29 l-21 21 -45 -47 c-46 -49 -67 -58 -32 -13
22 28 25 37 10 37 -5 0 -19 -18 -30 -40 -18 -35 -18 -40 -5 -40 9 0 14 -3 11
-8 -2 -4 -7 -28 -11 -52 -3 -25 -13 -56 -22 -68 -8 -14 -12 -34 -9 -48 5 -19
3 -24 -13 -24 -19 0 -48 -36 -38 -47 3 -2 -2 -13 -10 -23 -8 -10 -27 -44 -42
-77 -14 -32 -34 -71 -44 -87 -24 -36 -19 -69 10 -71 12 -1 26 1 31 4 5 3 33
53 62 110 45 88 58 105 88 118 46 19 74 24 67 12 -4 -5 0 -9 9 -9 23 0 36
-142 17 -192 -8 -20 -7 -28 5 -32 8 -3 14 -12 14 -21 0 -8 4 -14 9 -13 5 2 9
-1 10 -7 2 -18 -23 -12 -41 9 l-18 21 0 -23 c0 -35 27 -59 51 -44 25 16 29 15
29 -5 1 -17 2 -16 11 1 11 17 7 164 -7 307 l-6 56 44 16 c50 20 62 21 53 7 -3
-6 1 -7 9 -4 19 7 21 -27 6 -91 -6 -26 -5 -44 2 -52 7 -9 7 -13 0 -13 -5 0
-12 -7 -15 -14 -4 -10 -1 -13 9 -9 10 4 14 -3 14 -23 l0 -29 20 25 c14 18 20
20 20 9 0 -8 -4 -19 -9 -25 -6 -5 -1 -10 15 -10 13 -1 24 2 24 7 0 5 9 9 20 9
10 0 24 9 30 20 6 11 8 20 4 20 -3 0 9 19 28 43 30 35 34 46 25 65 -12 27 1
44 15 19 20 -37 148 171 177 287 26 105 -8 141 -131 140 -43 -1 -78 2 -78 7 0
11 -27 12 -32 1z m229 -84 c-3 -7 -5 -2 -5 12 0 14 2 19 5 13 2 -7 2 -19 0
-25z m-92 -46 c0 -23 3 -42 8 -42 12 0 8 -35 -8 -73 -17 -42 -113 -163 -126
-159 -5 1 -14 -9 -21 -22 -6 -14 -17 -27 -24 -30 -17 -6 -17 -14 0 91 8 49 19
127 26 175 l12 86 36 10 c21 6 51 10 67 9 28 -2 30 -4 30 -45z m32 -14 c-3 -7
-5 -2 -5 12 0 14 2 19 5 13 2 -7 2 -19 0 -25z m-503 -164 c15 -39 6 -60 -35
-84 -23 -12 -40 -19 -38 -14 2 5 13 33 23 62 20 52 39 66 50 36z"/>
<path d="M2135 609 c-4 -6 -5 -12 -2 -15 2 -3 7 2 10 11 7 17 1 20 -8 4z"/>
<path d="M505 876 c-31 -9 -58 -24 -71 -42 -22 -26 -37 -74 -25 -74 3 0 15
-18 25 -40 20 -43 56 -83 127 -145 56 -49 95 -101 104 -138 6 -22 10 -25 21
-16 8 6 14 17 14 24 0 8 6 15 12 17 21 7 -4 48 -82 131 -80 86 -124 155 -110
177 10 17 28 21 104 27 69 6 106 -9 106 -43 0 -22 -23 -54 -40 -54 -5 0 -12
-9 -15 -20 -8 -26 13 -53 36 -47 12 3 16 0 12 -9 -8 -22 10 -16 45 14 35 29
50 79 38 126 -7 28 -57 79 -99 102 -40 21 -143 26 -202 10z m283 -193 c-4 -21
-22 -43 -37 -43 -17 0 -13 11 12 35 28 29 29 29 25 8z"/>
<path d="M968 829 c-10 -5 -18 -7 -18 -2 0 12 -81 -70 -105 -108 -82 -127 -86
-367 -8 -441 33 -31 103 -52 142 -43 27 6 29 3 46 -52 27 -89 55 -151 72 -157
11 -5 13 -1 7 17 -17 54 -44 174 -44 198 0 15 12 39 30 57 17 18 30 40 30 49
0 12 -7 7 -20 -14 -11 -18 -25 -33 -30 -33 -6 0 -8 5 -4 12 5 7 2 9 -9 5 -19
-7 -14 14 15 55 11 16 16 33 12 39 -4 8 -9 7 -15 -2 -17 -28 -14 -2 4 31 12
22 17 27 14 13 -3 -13 -1 -25 4 -28 11 -8 23 40 13 56 -4 8 -3 9 4 5 19 -12
14 -53 -13 -106 -14 -28 -21 -50 -15 -50 6 0 13 8 16 18 16 48 27 72 35 72 5
0 6 -8 3 -17 -5 -15 -3 -15 11 2 14 16 16 34 12 95 -6 84 -23 132 -66 184 -18
21 -28 20 -41 -4 -8 -15 -6 -28 10 -57 26 -48 25 -115 -1 -173 -19 -42 -21
-43 -32 -25 -6 11 -12 22 -13 25 -13 42 -18 50 -25 50 -5 0 -9 -7 -9 -16 0 -8
-4 -12 -10 -9 -14 9 -12 -23 4 -70 16 -45 9 -59 -31 -70 -38 -9 -93 22 -100
58 -3 16 -12 27 -22 27 -14 1 -14 2 1 11 13 7 17 23 17 63 -1 29 4 63 10 74
15 27 14 30 -6 35 -14 4 -12 5 5 6 13 1 22 7 22 17 0 27 20 54 35 48 20 -8 19
-31 -2 -43 -10 -6 -13 -11 -7 -11 6 0 19 9 28 19 10 11 32 23 49 27 27 6 66
38 67 55 0 3 -15 14 -34 24 -19 11 -32 24 -28 29 3 6 7 16 8 21 1 6 5 18 9 28
8 19 -1 21 -27 6z m160 -274 c-3 -3 -9 2 -12 12 -6 14 -5 15 5 6 7 -7 10 -15
7 -18z m-73 -175 c-3 -5 -11 -10 -16 -10 -6 0 -7 5 -4 10 3 6 11 10 16 10 6 0
7 -4 4 -10z m-70 -90 c-3 -5 -14 -10 -23 -10 -15 0 -15 2 -2 10 20 13 33 13
25 0z"/>
<path d="M1472 770 c-16 -27 -16 -28 14 -22 24 4 25 2 22 -29 -2 -23 -9 -35
-20 -37 -11 -2 -18 3 -18 12 0 8 -4 17 -9 21 -5 3 -15 -21 -21 -52 -6 -32 -20
-76 -30 -98 -10 -22 -28 -74 -38 -115 -31 -117 -47 -149 -73 -150 -12 0 -29
87 -29 144 0 31 -4 56 -8 56 -5 0 -9 28 -8 62 0 34 -5 63 -11 65 -5 2 -8 14
-6 26 2 12 -3 31 -12 42 l-17 20 7 -20 c4 -11 9 -26 12 -32 3 -7 0 -13 -7 -13
-6 0 -9 4 -5 9 3 5 1 12 -4 15 -16 10 -23 -30 -23 -131 0 -60 -3 -91 -9 -82
-5 9 -7 -1 -3 -26 3 -22 6 -62 8 -90 3 -55 13 -80 45 -109 14 -12 18 -22 11
-26 -6 -4 8 -15 30 -25 41 -18 42 -18 77 1 28 14 44 35 70 90 18 40 36 87 39
105 3 19 12 50 19 69 32 83 44 141 46 211 2 115 -17 159 -49 109z"/>
<path d="M434 504 c-2 -8 -6 -21 -9 -30 -3 -9 -1 -12 7 -8 7 5 9 2 5 -8 -6
-18 52 -109 85 -132 12 -9 37 -16 54 -16 18 0 35 -6 37 -12 4 -10 6 -10 6 0 1
6 6 12 12 12 5 0 7 -4 4 -10 -3 -6 -2 -10 4 -10 5 0 12 3 15 8 6 10 -21 45
-31 39 -4 -3 -14 1 -21 9 -11 12 -10 14 3 14 8 0 15 7 15 15 0 7 6 18 14 22 9
5 -3 8 -32 9 -62 1 -92 17 -92 52 0 15 -4 33 -9 40 -11 19 -62 23 -67 6z"/>
<path d="M709 431 c-16 -16 -29 -40 -30 -53 0 -13 -3 -36 -5 -52 -5 -27 -3
-28 23 -21 15 3 28 7 28 8 1 1 10 19 20 40 16 30 17 41 7 57 -6 10 -9 26 -6
35 9 23 -5 18 -37 -14z"/>
<path d="M1525 439 c-4 -6 -5 -12 -2 -15 2 -3 7 2 10 11 7 17 1 20 -8 4z"/>
<path d="M1161 394 c0 -11 3 -14 6 -6 3 7 2 16 -1 19 -3 4 -6 -2 -5 -13z"/>
<path d="M1501 384 c-6 -15 -9 -29 -7 -32 3 -2 10 8 16 23 14 36 7 43 -9 9z"/>
<path d="M1466 315 c-3 -9 -6 -22 -5 -28 0 -7 5 -1 10 12 5 13 8 26 5 28 -2 2
-6 -3 -10 -12z"/>
</g>
</svg>
